<?xml version="1.0" encoding="UTF-8"?>
<svg width="15px" height="20px" viewBox="0 0 15 20" version="1.1" xmlns="http://www.w3.org/2000/svg" xmlns:xlink="http://www.w3.org/1999/xlink">
    <!-- Generator: Sketch 46.2 (44496) - http://www.bohemiancoding.com/sketch -->
    <title>adobe-acrobat-icon</title>
    <desc>Created with Sketch.</desc>
    <defs></defs>
    <g id="Comunicação-interna" stroke="none" stroke-width="1" fill="none" fill-rule="evenodd">
        <g id="Comunicação-interna---Show" transform="translate(-903.000000, -255.000000)">
            <g id="Group-2" transform="translate(874.000000, 254.000000)">
                <g id="adobe-acrobat-icon" transform="translate(29.849462, 1.483871)">
                    <polygon id="Rectangle" fill="#2B2B2B" points="0 0 9.20230058 0 13.8034509 4.63709677 13.8034509 18.5483871 0 18.5483871"></polygon>
                    <polygon id="Rectangle" fill="#CBCBCB" transform="translate(11.430983, 2.372468) scale(1, -1) translate(-11.430983, -2.372468) " points="9.05851463 0 13.8034509 0 9.05851463 4.74493623"></polygon>
                    <path d="M6.7808074,8.6473332 C6.64477993,9.08495269 6.44961008,9.55214106 6.18346937,10.0666396 C6.06518461,10.2913632 5.93507137,10.5042591 5.88775747,10.6816724 L5.95281409,10.6580173 L5.95281409,10.6580173 C6.70392231,10.3682423 7.41363086,10.2026565 7.92816955,10.1080361 C7.83945599,10.0488983 7.75665665,9.98384677 7.6856858,9.91879522 C7.33083153,9.6171926 7.02329116,9.17957312 6.7808074,8.6473332 L6.7808074,8.6473332 Z M10.6132336,10.9004822 C10.5126915,11.0128439 10.3352644,11.0778955 10.0750379,11.0778955 C9.62555585,11.0778955 8.89219034,10.9418786 8.30076655,10.640276 C7.28351763,10.7526378 6.52649517,10.8886546 5.91732866,11.0838093 C5.88775747,11.0956368 5.85227204,11.1074644 5.81087238,11.1252057 C5.07750687,12.3789264 4.53339698,12.9407352 4.0543437,12.9407352 C3.9597159,12.9407352 3.86508809,12.9170801 3.79411723,12.8756836 L3.51023381,12.6923566 L3.4924911,12.6627877 C3.45109143,12.5563397 3.43926295,12.4558055 3.46291991,12.3434437 C3.52797652,12.0300136 3.86508809,11.5332563 4.57479664,11.089723 C4.68716716,11.0069302 4.8645943,10.9123097 5.10116382,10.799948 C5.27859096,10.4924316 5.46784658,10.1316912 5.66893067,9.73546814 C5.9705568,9.12634913 6.15981242,8.52314389 6.30766837,8.00273153 L6.30766837,7.99681775 C6.08884156,7.28125076 5.95872833,6.84954505 6.17755513,6.06301273 C6.23078327,5.83828921 6.42595312,5.60765191 6.64477993,5.60765191 L6.78672164,5.60765191 C6.92274911,5.60765191 7.05286235,5.65496213 7.14749016,5.74958256 C7.53782986,6.13989183 7.35448848,7.0920099 7.15931863,7.87854222 C7.14749016,7.91402488 7.14157592,7.94359376 7.13566168,7.96133509 C7.3722312,8.62959187 7.70934275,9.16774557 8.08193974,9.47526196 C8.23570993,9.5935375 8.40722283,9.71181303 8.59647844,9.81826102 C8.86261915,9.78869213 9.11693138,9.77686458 9.35941514,9.77686458 C10.0927806,9.77686458 10.5363485,9.90696767 10.7078614,10.1849152 C10.7670038,10.2795356 10.796575,10.3918974 10.7788323,10.5101729 C10.772918,10.6580173 10.7196899,10.7940342 10.6132336,10.9004822 L10.6132336,10.9004822 Z M10.3707498,10.480604 C10.3116075,10.4214663 10.0750379,10.2736218 9.24704462,10.2736218 C9.20564495,10.2736218 9.16424529,10.2736218 9.11101715,10.3327596 C9.54275652,10.5220005 9.96266741,10.6343622 10.2347224,10.6343622 C10.276122,10.6343622 10.3116075,10.6284484 10.3470929,10.6225347 L10.3707498,10.6225347 C10.400321,10.6107071 10.4180637,10.6047933 10.423978,10.5456556 C10.4121495,10.5279142 10.400321,10.5042591 10.3707498,10.480604 L10.3707498,10.480604 Z M4.94739363,11.3440154 C4.82319464,11.4149808 4.72265259,11.4800323 4.66351021,11.5273425 C4.24359932,11.911738 3.97745861,12.3020473 3.94788742,12.5267708 C4.21402813,12.4380642 4.56296817,12.0477549 4.94739363,11.3440154 L4.94739363,11.3440154 Z M6.7334935,7.25759565 L6.76306469,7.23394054 C6.80446435,7.04469968 6.82220707,6.87911393 6.8576925,6.74901084 L6.87543521,6.65439041 C6.93457759,6.31730513 6.92274911,6.1458056 6.82220707,6.00387496 L6.7334935,5.97430608 C6.72166502,5.99204741 6.70392231,6.02161629 6.69209383,6.0452714 C6.59155179,6.29365003 6.59746603,6.72535573 6.7334935,7.25759565 L6.7334935,7.25759565 Z" id="Shape" fill="#FFFFFF" fill-rule="nonzero"></path>
                </g>
            </g>
        </g>
    </g>
</svg>