<?xml version="1.0" encoding="UTF-8" standalone="no"?>
<svg width="20px" height="20px" viewBox="0 0 20 20" version="1.1" xmlns="http://www.w3.org/2000/svg" xmlns:xlink="http://www.w3.org/1999/xlink">
    <!-- Generator: Sketch 39.1 (31720) - http://www.bohemiancoding.com/sketch -->
    <title>Logout</title>
    <desc>Created with Sketch.</desc>
    <defs></defs>
    <g id="Page-1" stroke="none" stroke-width="1" fill="none" fill-rule="evenodd" opacity="0.25">
        <g id="4---Usuários" transform="translate(-962.000000, -55.000000)" fill="#FFFFFF">
            <path d="M973.147669,72.7777778 L964.203055,72.7777778 L964.203055,57.2222222 L973.147669,57.2222222 L973.147669,60.5555556 L975.350502,60.5555556 L975.350502,57.2222222 C975.350502,56 974.349214,55 973.125418,55 L964.225084,55 C963.001288,55 962,56 962,57.2222222 L962,72.7777778 C962,74 963.001288,75 964.225084,75 L973.125418,75 C974.349214,75 975.350502,74 975.350502,72.7777778 L975.350502,70.5555556 L973.147669,70.5555556 L973.147669,72.7777778 L973.147669,72.7777778 Z M982.025753,65.5555556 L977.597837,61.2222222 L977.597837,63.8888889 L967.585183,63.8888889 L967.585183,67.2222222 L977.597837,67.2222222 L977.597837,69.8888889 L982.025753,65.5555556 L982.025753,65.5555556 Z" id="Logout"></path>
        </g>
    </g>
</svg>