<?xml version="1.0" encoding="UTF-8"?>
<svg width="19px" height="19px" viewBox="0 0 19 19" version="1.1" xmlns="http://www.w3.org/2000/svg" xmlns:xlink="http://www.w3.org/1999/xlink">
    <!-- Generator: Sketch 46.2 (44496) - http://www.bohemiancoding.com/sketch -->
    <title>Excel</title>
    <desc>Created with Sketch.</desc>
    <defs></defs>
    <g id="Comunicação-interna" stroke="none" stroke-width="1" fill="none" fill-rule="evenodd">
        <g id="Comunicação-interna---Show" transform="translate(-875.000000, -255.000000)">
            <g id="Group-2" transform="translate(874.000000, 254.000000)">
                <g id="Excel">
                    <g id="Group" transform="translate(1.909091, 1.916667)">
                        <path d="M10.0144246,0 L10.0144246,17.8780727 L0,15.9831067 L0,1.81903971 L10.0144246,0 Z M10.4447935,2.08275493 L17.350442,2.08275493 L17.350442,15.8352347 L10.4447935,15.8352347 L10.4447935,2.08275493 Z M10.4447935,3.04585123 L10.4447935,4.89182166 L12.9480911,4.89182166 L12.9480911,3.04585123 L10.4447935,3.04585123 Z M13.4660147,3.04585123 L13.4660147,4.89182166 L16.3145948,4.89182166 L16.3145948,3.04585123 L13.4660147,3.04585123 Z M13.4660147,5.4456128 L13.4660147,7.29158324 L16.3145948,7.29158324 L16.3145948,5.4456128 L13.4660147,5.4456128 Z M10.4447935,5.4456128 L10.4447935,7.29158324 L12.9480911,7.29158324 L12.9480911,5.4456128 L10.4447935,5.4456128 Z M10.4447935,7.84537437 L10.4447935,9.69134481 L12.9480911,9.69134481 L12.9480911,7.84537437 L10.4447935,7.84537437 Z M10.4447935,10.2451359 L10.4447935,12.0911064 L12.9480911,12.0911064 L12.9480911,10.2451359 L10.4447935,10.2451359 Z M10.4447935,12.6448975 L10.4447935,14.490868 L12.9480911,14.490868 L12.9480911,12.6448975 L10.4447935,12.6448975 Z M13.4660147,7.84537437 L13.4660147,9.69134481 L16.3145948,9.69134481 L16.3145948,7.84537437 L13.4660147,7.84537437 Z M13.4660147,10.2451359 L13.4660147,12.0911064 L16.3145948,12.0911064 L16.3145948,10.2451359 L13.4660147,10.2451359 Z M13.4660147,12.6448975 L13.4660147,14.490868 L16.3145948,14.490868 L16.3145948,12.6448975 L13.4660147,12.6448975 Z" id="Rectangle-46" fill="#2B2B2B"></path>
                        <text id="X" font-family="OpenSans, Open Sans" font-size="15" font-weight="normal" fill="#FFFFFF">
                            <tspan x="1.90909091" y="17.2777778">X</tspan>
                        </text>
                    </g>
                </g>
            </g>
        </g>
    </g>
</svg>