<?xml version="1.0" encoding="UTF-8"?>
<svg width="12px" height="14px" viewBox="0 0 12 14" version="1.1" xmlns="http://www.w3.org/2000/svg" xmlns:xlink="http://www.w3.org/1999/xlink">
    <!-- Generator: Sketch 45.1 (43504) - http://www.bohemiancoding.com/sketch -->
    <title>notif</title>
    <desc>Created with Sketch.</desc>
    <defs></defs>
    <g id="Page-1" stroke="none" stroke-width="1" fill="none" fill-rule="evenodd">
        <g id="Artboard" transform="translate(-900.000000, -25.000000)" fill="#9BA9BF">
            <path d="M906.003097,25.5419355 C906.273204,25.5419355 906.505634,25.6632258 906.606968,25.8963441 C906.422882,25.8763871 906.230538,25.8233978 906.028731,25.8233978 L906.026323,25.8233978 C905.805763,25.8233978 905.596387,25.8770753 905.397677,25.8994409 C905.498323,25.6646022 905.731785,25.5419355 906.003097,25.5419355 M912,35.7552688 C911.155613,34.8530753 909.827097,33.4755269 909.853247,32.4145376 L909.90572,30.2853333 C909.88628,28.224086 909.106409,26.5196559 907.192774,26.0417204 C907.114839,25.4545376 906.611269,25 906.003097,25 C905.39372,25 904.889118,25.4564301 904.812903,26.0455054 L904.812903,26.0455054 C902.880688,26.5273978 902.17686,28.2206452 902.162581,30.2743226 L902.220387,32.4036989 C902.249118,33.4646882 900.803613,34.7815054 900,35.7633548 C900,35.7633548 902.278194,36.5003871 904.289032,36.8436129 C904.410151,37.6812903 905.132559,38.3269677 906.003097,38.3269677 C906.868989,38.3269677 907.588473,37.6883441 907.715269,36.8573763 L907.715269,36.8573763 C909.72043,36.5187957 912,35.7552688 912,35.7552688" id="notif"></path>
        </g>
    </g>
</svg>